<svg width="300" height="106" viewBox="0 0 300 106" fill="none" xmlns="http://www.w3.org/2000/svg">
<path d="M50.664 48.4H22.064L16.608 61.6H2L29.456 0H43.536L71.08 61.6H56.12L50.664 48.4ZM46.176 37.576L36.408 13.992L26.64 37.576H46.176Z" fill="white"/>
<path d="M92.0013 62.304C88.0706 62.304 84.228 61.8347 80.4733 60.896C76.7186 59.8987 73.7266 58.6667 71.4973 57.2L76.0733 47.344C78.1853 48.6933 80.7373 49.808 83.7293 50.688C86.7213 51.5093 89.6546 51.92 92.5293 51.92C98.3373 51.92 101.241 50.4827 101.241 47.608C101.241 46.2587 100.449 45.2907 98.8653 44.704C97.2813 44.1173 94.8466 43.6187 91.5613 43.208C87.6893 42.6213 84.492 41.9467 81.9693 41.184C79.4466 40.4213 77.2466 39.072 75.3693 37.136C73.5506 35.2 72.6413 32.4427 72.6413 28.864C72.6413 25.872 73.492 23.232 75.1933 20.944C76.9533 18.5973 79.476 16.7787 82.7613 15.488C86.1053 14.1973 90.036 13.552 94.5533 13.552C97.8973 13.552 101.212 13.9333 104.497 14.696C107.841 15.4 110.599 16.3973 112.769 17.688L108.193 27.456C104.028 25.1093 99.4813 23.936 94.5533 23.936C91.62 23.936 89.42 24.3467 87.9533 25.168C86.4866 25.9893 85.7533 27.0453 85.7533 28.336C85.7533 29.8027 86.5453 30.8293 88.1293 31.416C89.7133 32.0027 92.236 32.56 95.6973 33.088C99.5693 33.7333 102.737 34.4373 105.201 35.2C107.665 35.904 109.807 37.224 111.625 39.16C113.444 41.096 114.353 43.7947 114.353 47.256C114.353 50.1893 113.473 52.8 111.713 55.088C109.953 57.376 107.372 59.1653 103.969 60.456C100.625 61.688 96.636 62.304 92.0013 62.304Z" fill="white"/>
<path d="M138.751 62.304C134.821 62.304 130.978 61.8347 127.223 60.896C123.469 59.8987 120.477 58.6667 118.247 57.2L122.823 47.344C124.935 48.6933 127.487 49.808 130.479 50.688C133.471 51.5093 136.405 51.92 139.279 51.92C145.087 51.92 147.991 50.4827 147.991 47.608C147.991 46.2587 147.199 45.2907 145.615 44.704C144.031 44.1173 141.597 43.6187 138.311 43.208C134.439 42.6213 131.242 41.9467 128.719 41.184C126.197 40.4213 123.997 39.072 122.119 37.136C120.301 35.2 119.391 32.4427 119.391 28.864C119.391 25.872 120.242 23.232 121.943 20.944C123.703 18.5973 126.226 16.7787 129.511 15.488C132.855 14.1973 136.786 13.552 141.303 13.552C144.647 13.552 147.962 13.9333 151.247 14.696C154.591 15.4 157.349 16.3973 159.519 17.688L154.943 27.456C150.778 25.1093 146.231 23.936 141.303 23.936C138.37 23.936 136.17 24.3467 134.703 25.168C133.237 25.9893 132.503 27.0453 132.503 28.336C132.503 29.8027 133.295 30.8293 134.879 31.416C136.463 32.0027 138.986 32.56 142.447 33.088C146.319 33.7333 149.487 34.4373 151.951 35.2C154.415 35.904 156.557 37.224 158.375 39.16C160.194 41.096 161.103 43.7947 161.103 47.256C161.103 50.1893 160.223 52.8 158.463 55.088C156.703 57.376 154.122 59.1653 150.719 60.456C147.375 61.688 143.386 62.304 138.751 62.304Z" fill="white"/>
<path d="M188.669 13.552C196.003 13.552 201.635 15.312 205.565 18.832C209.496 22.2933 211.461 27.544 211.461 34.584V61.6H198.613V55.704C196.032 60.104 191.221 62.304 184.181 62.304C180.544 62.304 177.376 61.688 174.677 60.456C172.037 59.224 170.013 57.5227 168.605 55.352C167.197 53.1813 166.493 50.7173 166.493 47.96C166.493 43.56 168.136 40.0987 171.421 37.576C174.765 35.0533 179.899 33.792 186.821 33.792H197.733C197.733 30.8 196.824 28.512 195.005 26.928C193.187 25.2853 190.459 24.464 186.821 24.464C184.299 24.464 181.805 24.8747 179.341 25.696C176.936 26.4587 174.883 27.5147 173.181 28.864L168.253 19.272C170.835 17.4533 173.915 16.0453 177.493 15.048C181.131 14.0507 184.856 13.552 188.669 13.552ZM187.613 53.064C189.96 53.064 192.043 52.536 193.861 51.48C195.68 50.3653 196.971 48.752 197.733 46.64V41.8H188.317C182.685 41.8 179.869 43.648 179.869 47.344C179.869 49.104 180.544 50.512 181.893 51.568C183.301 52.5653 185.208 53.064 187.613 53.064Z" fill="white"/>
<path d="M252.662 13.552C258.528 13.552 263.251 15.312 266.83 18.832C270.467 22.352 272.286 27.5733 272.286 34.496V61.6H258.558V36.608C258.558 32.8533 257.736 30.0667 256.094 28.248C254.451 26.3707 252.075 25.432 248.966 25.432C245.504 25.432 242.747 26.5173 240.694 28.688C238.64 30.8 237.614 33.968 237.614 38.192V61.6H223.886V14.256H236.998V19.8C238.816 17.8053 241.075 16.28 243.774 15.224C246.472 14.1093 249.435 13.552 252.662 13.552Z" fill="white"/>
<path d="M289.922 62.304C287.516 62.304 285.492 61.4827 283.85 59.84C282.207 58.1973 281.386 56.144 281.386 53.68C281.386 51.1573 282.207 49.1333 283.85 47.608C285.492 46.024 287.516 45.232 289.922 45.232C292.327 45.232 294.351 46.024 295.994 47.608C297.636 49.1333 298.458 51.1573 298.458 53.68C298.458 56.144 297.636 58.1973 295.994 59.84C294.351 61.4827 292.327 62.304 289.922 62.304Z" fill="#D99556"/>
<g opacity="0.6">
<path d="M15.677 105.468C12.895 105.468 10.373 104.87 8.111 103.674C5.875 102.452 4.107 100.775 2.807 98.643C1.533 96.485 0.895996 94.054 0.895996 91.35C0.895996 88.646 1.533 86.228 2.807 84.096C4.107 81.938 5.875 80.261 8.111 79.065C10.373 77.843 12.908 77.232 15.716 77.232C18.082 77.232 20.214 77.648 22.112 78.48C24.036 79.312 25.648 80.508 26.948 82.068L22.892 85.812C21.046 83.68 18.758 82.614 16.028 82.614C14.338 82.614 12.83 82.991 11.504 83.745C10.178 84.473 9.138 85.5 8.384 86.826C7.656 88.152 7.292 89.66 7.292 91.35C7.292 93.04 7.656 94.548 8.384 95.874C9.138 97.2 10.178 98.24 11.504 98.994C12.83 99.722 14.338 100.086 16.028 100.086C18.758 100.086 21.046 99.007 22.892 96.849L26.948 100.593C25.648 102.179 24.036 103.388 22.112 104.22C20.188 105.052 18.043 105.468 15.677 105.468Z" fill="white"/>
<path d="M31.2145 77.7H37.5325V99.852H51.2215V105H31.2145V77.7Z" fill="white"/>
<path d="M72.9592 99.15H60.2842L57.8662 105H51.3922L63.5602 77.7H69.8002L82.0072 105H75.3772L72.9592 99.15ZM70.9702 94.353L66.6412 83.901L62.3122 94.353H70.9702Z" fill="white"/>
<path d="M93.8095 105.468C91.6515 105.468 89.5585 105.182 87.5305 104.61C85.5285 104.012 83.9165 103.245 82.6945 102.309L84.8395 97.551C86.0095 98.409 87.4005 99.098 89.0125 99.618C90.6245 100.138 92.2365 100.398 93.8485 100.398C95.6425 100.398 96.9685 100.138 97.8265 99.618C98.6845 99.072 99.1135 98.357 99.1135 97.473C99.1135 96.823 98.8535 96.29 98.3335 95.874C97.8395 95.432 97.1895 95.081 96.3835 94.821C95.6035 94.561 94.5375 94.275 93.1855 93.963C91.1055 93.469 89.4025 92.975 88.0765 92.481C86.7505 91.987 85.6065 91.194 84.6445 90.102C83.7085 89.01 83.2405 87.554 83.2405 85.734C83.2405 84.148 83.6695 82.718 84.5275 81.444C85.3855 80.144 86.6725 79.117 88.3885 78.363C90.1305 77.609 92.2495 77.232 94.7455 77.232C96.4875 77.232 98.1905 77.44 99.8545 77.856C101.519 78.272 102.975 78.87 104.223 79.65L102.273 84.447C99.7505 83.017 97.2285 82.302 94.7065 82.302C92.9385 82.302 91.6255 82.588 90.7675 83.16C89.9355 83.732 89.5195 84.486 89.5195 85.422C89.5195 86.358 90.0005 87.06 90.9625 87.528C91.9505 87.97 93.4455 88.412 95.4475 88.854C97.5275 89.348 99.2305 89.842 100.557 90.336C101.883 90.83 103.014 91.61 103.95 92.676C104.912 93.742 105.393 95.185 105.393 97.005C105.393 98.565 104.951 99.995 104.067 101.295C103.209 102.569 101.909 103.583 100.167 104.337C98.4245 105.091 96.3055 105.468 93.8095 105.468Z" fill="white"/>
<path d="M118.68 105.468C116.522 105.468 114.429 105.182 112.401 104.61C110.399 104.012 108.787 103.245 107.565 102.309L109.71 97.551C110.88 98.409 112.271 99.098 113.883 99.618C115.495 100.138 117.107 100.398 118.719 100.398C120.513 100.398 121.839 100.138 122.697 99.618C123.555 99.072 123.984 98.357 123.984 97.473C123.984 96.823 123.724 96.29 123.204 95.874C122.71 95.432 122.06 95.081 121.254 94.821C120.474 94.561 119.408 94.275 118.056 93.963C115.976 93.469 114.273 92.975 112.947 92.481C111.621 91.987 110.477 91.194 109.515 90.102C108.579 89.01 108.111 87.554 108.111 85.734C108.111 84.148 108.54 82.718 109.398 81.444C110.256 80.144 111.543 79.117 113.259 78.363C115.001 77.609 117.12 77.232 119.616 77.232C121.358 77.232 123.061 77.44 124.725 77.856C126.389 78.272 127.845 78.87 129.093 79.65L127.143 84.447C124.621 83.017 122.099 82.302 119.577 82.302C117.809 82.302 116.496 82.588 115.638 83.16C114.806 83.732 114.39 84.486 114.39 85.422C114.39 86.358 114.871 87.06 115.833 87.528C116.821 87.97 118.316 88.412 120.318 88.854C122.398 89.348 124.101 89.842 125.427 90.336C126.753 90.83 127.884 91.61 128.82 92.676C129.782 93.742 130.263 95.185 130.263 97.005C130.263 98.565 129.821 99.995 128.937 101.295C128.079 102.569 126.779 103.583 125.037 104.337C123.295 105.091 121.176 105.468 118.68 105.468Z" fill="white"/>
<path d="M134.58 77.7H140.898V105H134.58V77.7Z" fill="white"/>
<path d="M160.442 105.468C157.66 105.468 155.138 104.87 152.876 103.674C150.64 102.452 148.872 100.775 147.572 98.643C146.298 96.485 145.661 94.054 145.661 91.35C145.661 88.646 146.298 86.228 147.572 84.096C148.872 81.938 150.64 80.261 152.876 79.065C155.138 77.843 157.673 77.232 160.481 77.232C162.847 77.232 164.979 77.648 166.877 78.48C168.801 79.312 170.413 80.508 171.713 82.068L167.657 85.812C165.811 83.68 163.523 82.614 160.793 82.614C159.103 82.614 157.595 82.991 156.269 83.745C154.943 84.473 153.903 85.5 153.149 86.826C152.421 88.152 152.057 89.66 152.057 91.35C152.057 93.04 152.421 94.548 153.149 95.874C153.903 97.2 154.943 98.24 156.269 98.994C157.595 99.722 159.103 100.086 160.793 100.086C163.523 100.086 165.811 99.007 167.657 96.849L171.713 100.593C170.413 102.179 168.801 103.388 166.877 104.22C164.953 105.052 162.808 105.468 160.442 105.468Z" fill="white"/>
<path d="M195.994 105.468C193.836 105.468 191.743 105.182 189.715 104.61C187.713 104.012 186.101 103.245 184.879 102.309L187.024 97.551C188.194 98.409 189.585 99.098 191.197 99.618C192.809 100.138 194.421 100.398 196.033 100.398C197.827 100.398 199.153 100.138 200.011 99.618C200.869 99.072 201.298 98.357 201.298 97.473C201.298 96.823 201.038 96.29 200.518 95.874C200.024 95.432 199.374 95.081 198.568 94.821C197.788 94.561 196.722 94.275 195.37 93.963C193.29 93.469 191.587 92.975 190.261 92.481C188.935 91.987 187.791 91.194 186.829 90.102C185.893 89.01 185.425 87.554 185.425 85.734C185.425 84.148 185.854 82.718 186.712 81.444C187.57 80.144 188.857 79.117 190.573 78.363C192.315 77.609 194.434 77.232 196.93 77.232C198.672 77.232 200.375 77.44 202.039 77.856C203.703 78.272 205.159 78.87 206.407 79.65L204.457 84.447C201.935 83.017 199.413 82.302 196.891 82.302C195.123 82.302 193.81 82.588 192.952 83.16C192.12 83.732 191.704 84.486 191.704 85.422C191.704 86.358 192.185 87.06 193.147 87.528C194.135 87.97 195.63 88.412 197.632 88.854C199.712 89.348 201.415 89.842 202.741 90.336C204.067 90.83 205.198 91.61 206.134 92.676C207.096 93.742 207.577 95.185 207.577 97.005C207.577 98.565 207.135 99.995 206.251 101.295C205.393 102.569 204.093 103.583 202.351 104.337C200.609 105.091 198.49 105.468 195.994 105.468Z" fill="white"/>
<path d="M236.932 77.7V105H230.614V93.807H218.212V105H211.894V77.7H218.212V88.464H230.614V77.7H236.932Z" fill="white"/>
<path d="M256.612 105.468C253.778 105.468 251.217 104.857 248.929 103.635C246.667 102.413 244.886 100.736 243.586 98.604C242.312 96.446 241.675 94.028 241.675 91.35C241.675 88.672 242.312 86.267 243.586 84.135C244.886 81.977 246.667 80.287 248.929 79.065C251.217 77.843 253.778 77.232 256.612 77.232C259.446 77.232 261.994 77.843 264.256 79.065C266.518 80.287 268.299 81.977 269.599 84.135C270.899 86.267 271.549 88.672 271.549 91.35C271.549 94.028 270.899 96.446 269.599 98.604C268.299 100.736 266.518 102.413 264.256 103.635C261.994 104.857 259.446 105.468 256.612 105.468ZM256.612 100.086C258.224 100.086 259.68 99.722 260.98 98.994C262.28 98.24 263.294 97.2 264.022 95.874C264.776 94.548 265.153 93.04 265.153 91.35C265.153 89.66 264.776 88.152 264.022 86.826C263.294 85.5 262.28 84.473 260.98 83.745C259.68 82.991 258.224 82.614 256.612 82.614C255 82.614 253.544 82.991 252.244 83.745C250.944 84.473 249.917 85.5 249.163 86.826C248.435 88.152 248.071 89.66 248.071 91.35C248.071 93.04 248.435 94.548 249.163 95.874C249.917 97.2 250.944 98.24 252.244 98.994C253.544 99.722 255 100.086 256.612 100.086Z" fill="white"/>
<path d="M288.115 77.7C290.533 77.7 292.626 78.103 294.394 78.909C296.188 79.715 297.566 80.859 298.528 82.341C299.49 83.823 299.971 85.578 299.971 87.606C299.971 89.608 299.49 91.363 298.528 92.871C297.566 94.353 296.188 95.497 294.394 96.303C292.626 97.083 290.533 97.473 288.115 97.473H282.616V105H276.298V77.7H288.115ZM287.764 92.325C289.662 92.325 291.105 91.922 292.093 91.116C293.081 90.284 293.575 89.114 293.575 87.606C293.575 86.072 293.081 84.902 292.093 84.096C291.105 83.264 289.662 82.848 287.764 82.848H282.616V92.325H287.764Z" fill="white"/>
</g>
</svg>
